<svg data-name="Layer 1" xmlns="http://www.w3.org/2000/svg" width="457.9" height="293.03" viewBox="0 0 457.9 293.03"><circle cx="146.52" cy="146.52" r="146.52" transform="rotate(-80.83 146.5085 146.5128)" fill="#213366"/><path d="M381.66 132.83a30.95 30.95 0 1 1-31-30.94 30.95 30.95 0 0 1 31 30.94z" fill="#46568a"/><path d="M457.9 234a57 57 0 1 1-57-57 57 57 0 0 1 57 57z" fill="#848db6"/><path d="M319.39 261.4a17.62 17.62 0 1 1-17.62-17.63 17.62 17.62 0 0 1 17.62 17.63z" fill="#b9bdd5"/><path d="M88.5 146.69c-6.57 0-7.58-5.18-7.58-12.53s1-13.11 7.58-13.11 7.67 5.73 7.67 13.11-1 12.53-7.67 12.53m.64-33.12c-12.69 0-17 7.68-17 20.59 0 5.09.92 9.24 2.65 12.39H54.92v-46.3H46.7V154h42.53c11.32 0 15.52-7.86 15.52-19.57 0-12.9-4.29-20.9-15.61-20.9M107.21 114.91h8.76l6.58 25.27h.18l6.93-25.27h7.58l6.76 25.27h.09l7.02-25.27h8.4l-10.95 39.51h-8.67l-6.39-23.41h-.19l-6.38 23.41h-8.49l-11.23-39.51zM200.49 100.21h8.58v53.52h-8.58zM219.02 100.21h8.94v53.52h-8.94zM236.36 145.56h9.31v8.17h-9.31zM178.23 120.46c6.2 0 6.93 5.66 6.93 8.17h-14.33c.27-2.33.19-8.17 7.4-8.17m5.77 26.61a22.35 22.35 0 0 1-5.11.23c-7-.16-8-7-8-11.69H194v-2.24c0-9.61-1.92-20-15.69-20-11.87 0-16.26 7.75-16.16 18.77.09 14.29 4.29 22.53 18.53 21.87 1.09 0 2.09-.11 3.28-.21z" fill="#bec0c2"/><path d="M59.2 185.61H69v1.83h-7.44V193h6.9v1.8h-6.9v7.62H59.2zM74.75 185.61v16.85h-2.36v-16.85zM78.86 202.46v-16.85h2.57l5.85 8.53a47 47 0 0 1 3.28 5.47 68.06 68.06 0 0 1-.27-6.92v-7h2.22v16.85h-2.33l-5.8-8.55a52.72 52.72 0 0 1-3.38-5.7h-.08c.14 2.13.19 4.15.19 6.95v7.2zM99.63 197.16l-1.9 5.3H95.3l6.2-16.85h2.84l6.22 16.85h-2.51l-2-5.3zm6-1.7l-1.79-4.85c-.4-1.1-.67-2.1-.94-3.07h-.06c-.27 1-.57 2-.92 3.05l-1.78 4.87zM113.25 202.46v-16.85h2.57l5.85 8.53a45.44 45.44 0 0 1 3.27 5.47h.06a68.06 68.06 0 0 1-.27-6.92v-7H127v16.85h-2.39l-5.79-8.55a52.72 52.72 0 0 1-3.41-5.62h-.08c.13 2.13.19 4.15.19 6.95v7.2zM143.81 201.91a12.46 12.46 0 0 1-4.81.8c-5.15 0-9-3-9-8.52 0-5.28 3.87-8.85 9.53-8.85a10.47 10.47 0 0 1 4.33.75l-.57 1.77a9.15 9.15 0 0 0-3.68-.7c-4.28 0-7.12 2.53-7.12 7 0 4.13 2.57 6.77 7 6.77a10 10 0 0 0 3.85-.7zM149.12 185.61v16.85h-2.35v-16.85zM156.19 197.16l-1.89 5.3h-2.44l6.2-16.85h2.84l6.23 16.85h-2.52l-2-5.3zm6-1.7l-1.78-4.85c-.41-1.1-.68-2.1-.95-3.07h-.05c-.28 1-.57 2-.93 3.05l-1.78 4.87zM169.81 185.61h2.36v15H180v1.83h-10.19zM188.33 185.61h2.36v15h7.79v1.83h-10.15zM202.19 187.46h-5.55v-1.85h13.51v1.85h-5.58v15h-2.38zM212.18 185.84a36.54 36.54 0 0 1 5-.35c3.39 0 5.79.72 7.39 2.1a7.44 7.44 0 0 1 2.57 6 8.53 8.53 0 0 1-2.62 6.54c-1.71 1.58-4.52 2.43-8.07 2.43a42.59 42.59 0 0 1-4.28-.2zm2.36 14.89a15.92 15.92 0 0 0 2.38.13c5 0 7.77-2.6 7.77-7.15 0-4-2.41-6.5-7.39-6.5a13.93 13.93 0 0 0-2.76.23z" fill="#fff"/></svg>