<svg data-name="Layer 1" xmlns="http://www.w3.org/2000/svg" width="197.16" height="126.17" viewBox="0 0 197.16 126.17"><path d="M126.17 63.08A63.09 63.09 0 1 1 63.08 0a63.09 63.09 0 0 1 63.09 63.08M164.33 57.19A13.33 13.33 0 1 1 151 43.87a13.32 13.32 0 0 1 13.33 13.32M197.16 100.75a24.53 24.53 0 1 1-24.53-24.53 24.53 24.53 0 0 1 24.53 24.53M137.52 112.55a7.59 7.59 0 1 1-7.59-7.59 7.58 7.58 0 0 1 7.59 7.59" fill="#fff"/><path d="M38.11 63.16c-2.84 0-3.27-2.23-3.27-5.39s.43-5.65 3.27-5.65 3.3 2.47 3.3 5.65-.44 5.39-3.3 5.39m.27-14.26c-5.46 0-7.31 3.31-7.31 8.87a11 11 0 0 0 1.14 5.33h-8.57V43.16h-3.53v23.16h18.31c4.87 0 6.68-3.38 6.68-8.42 0-5.56-1.85-9-6.72-9M46.16 49.48h3.77l2.83 10.87h.08l2.99-10.87h3.26L62 60.35h.04l3.02-10.87h3.62l-4.72 17.01h-3.73l-2.75-10.08h-.08l-2.75 10.08H51l-4.84-17.01M86.32 43.15h3.69v23.04h-3.69zM94.3 43.15h3.85v23.04H94.3zM101.77 62.67h4.01v3.52h-4.01zM76.74 51.87c2.67 0 3 2.43 3 3.51h-6.19c.12-1 .08-3.51 3.19-3.51m2.47 11.45a9.13 9.13 0 0 1-2.2.1c-3-.07-3.46-3-3.46-5h10v-1c0-4.13-.82-8.63-6.75-8.63-5.11 0-7 3.34-7 8.09 0 6.15 1.85 9.7 8 9.41.48 0 .91 0 1.42-.09zM25.49 79.92h4.23v.78h-3.21v2.41h2.97v.78h-2.97v3.28h-1.02v-7.25M31.17 79.92h1.01v7.25h-1.01zM34 87.17v-7.25h1.1l2.52 3.67A19.5 19.5 0 0 1 39 86c-.09-1-.11-1.85-.11-3v-3h1v7.25h-1l-2.5-3.68a24.46 24.46 0 0 1-1.47-2.42c.06.92.08 1.79.08 3v3.1h-1M42.9 84.89l-.82 2.28H41l2.67-7.25h1.22l2.69 7.25h-1.06l-.84-2.28H42.9m2.57-.73l-.77-2.09c-.17-.47-.29-.9-.41-1.32-.12.43-.24.87-.39 1.31l-.77 2.1zM48.76 87.17v-7.25h1.11l2.51 3.67A18.28 18.28 0 0 1 53.79 86c-.09-1-.12-1.85-.12-3v-3h1v7.25h-1l-2.49-3.68a22.69 22.69 0 0 1-1.47-2.42c.06.92.09 1.79.09 3v3.1h-1M61.92 86.93a5.21 5.21 0 0 1-2.07.35C57.63 87.28 56 86 56 83.61a3.77 3.77 0 0 1 4.11-3.81 4.49 4.49 0 0 1 1.86.32l-.24.77a3.84 3.84 0 0 0-1.59-.3 2.8 2.8 0 0 0-3.06 3 2.73 2.73 0 0 0 3 2.91 4.25 4.25 0 0 0 1.66-.3l.21.74M63.19 79.92h1.01v7.25h-1.01zM67.25 84.89l-.82 2.28h-1.05l2.67-7.25h1.23L72 87.17h-1.12L70 84.89h-2.75m2.58-.73l-.77-2.09c-.18-.47-.29-.9-.41-1.32-.11.43-.24.87-.39 1.31l-.77 2.1zM73.11 79.92h1.02v6.47h3.35v.78h-4.37v-7.25M81.09 79.92h1.01v6.47h3.36v.78h-4.37v-7.25M87.06 80.72h-2.39v-.8h5.81v.8h-2.4v6.45h-1.02v-6.45M91.36 80a15 15 0 0 1 2.16-.16 4.77 4.77 0 0 1 3.18.91 3.23 3.23 0 0 1 1.1 2.6 3.64 3.64 0 0 1-1.13 2.82 5.07 5.07 0 0 1-3.47 1c-.72 0-1.33 0-1.84-.09V80m1 6.41a7.52 7.52 0 0 0 1 0c2.17 0 3.34-1.12 3.34-3.08 0-1.7-1-2.79-3.18-2.79a5.77 5.77 0 0 0-1.19.1z" fill="#434a4f"/></svg>